<svg width="512" height="512" viewBox="0 0 512 512" fill="none" xmlns="http://www.w3.org/2000/svg">
<path d="M169.217 343.379C151.718 325.88 139.638 306.796 132.976 286.126C126.481 265.29 126.071 244.535 131.746 223.861C137.255 203.02 148.931 183.678 166.774 165.834C182.117 150.492 198.708 139.734 216.548 133.56C234.388 127.052 252.31 125.296 270.313 128.291C288.484 131.119 312.27 130.237 322.32 149.779C337.103 178.528 295.914 204.736 263.785 208.313C254.049 209.398 246.949 204.485 238.78 206.321C230.61 207.824 223.357 211.744 217.02 218.081C207.681 227.42 203.76 238.341 205.256 250.844C206.919 263.18 213.667 275.264 225.5 287.096C237.332 298.929 249.416 305.677 261.752 307.34C274.255 308.836 285.176 304.915 294.514 295.576C300.852 289.239 304.855 282.069 306.525 274.066C308.194 265.73 303.242 258.657 304.282 248.811C307.68 216.662 334.068 175.492 362.817 190.276C382.359 200.326 381.477 224.112 384.305 242.283C387.3 260.286 385.627 278.291 379.286 296.298C372.945 313.971 362.104 330.479 346.761 345.821C328.918 363.665 309.659 375.425 288.985 381.099C268.144 386.608 247.306 386.114 226.469 379.62C205.8 372.958 186.715 360.878 169.217 343.379Z" fill="#EE857F"/>
</svg>
