<svg width="512" height="512" viewBox="0 0 512 512" fill="none" xmlns="http://www.w3.org/2000/svg">
<path d="M156.71 184.703C156.71 164.606 160.73 146.71 168.769 131.015C176.999 115.32 188.674 103.166 203.795 94.5525C218.916 85.748 236.716 81.3458 257.196 81.3458C274.805 81.3458 290.5 84.6953 304.281 91.3944C318.253 97.9021 329.546 107.185 338.159 119.243C346.964 131.302 352.801 145.37 355.673 161.447H288.49C285.428 154.748 281.026 149.581 275.284 145.944C269.733 142.116 263.321 140.202 256.048 140.202C245.329 140.202 236.812 144.221 230.496 152.26C224.371 160.299 221.308 171.113 221.308 184.703C221.308 198.292 224.371 209.107 230.496 217.145C236.812 225.184 245.329 229.204 256.048 229.204C263.321 229.204 269.733 227.385 275.284 223.749C281.026 219.921 285.428 214.657 288.49 207.958H355.673C352.801 224.036 346.964 238.104 338.159 250.162C329.546 262.221 318.253 271.599 304.281 278.298C290.5 284.806 274.805 288.06 257.196 288.06C236.716 288.06 218.916 283.753 203.795 275.14C188.674 266.336 176.999 254.086 168.769 238.391C160.73 222.696 156.71 204.8 156.71 184.703Z" fill="#EE857F"/>
<path d="M95.7009 351.222C95.7009 339.991 104.806 330.886 116.037 330.886H396.92C408.151 330.886 417.256 339.991 417.256 351.222C417.256 362.454 408.151 371.559 396.92 371.559H116.037C104.806 371.559 95.7009 362.454 95.7009 351.222Z" fill="#EE857F"/>
<path d="M95.7009 351.222C95.7009 339.991 104.699 330.886 115.798 330.886H397.159C408.258 330.886 417.256 339.991 417.256 351.222C417.256 362.454 408.258 371.559 397.159 371.559H115.798C104.699 371.559 95.7009 362.454 95.7009 351.222Z" fill="#EE857F"/>
<path d="M95.7009 409.839C95.7009 398.608 104.806 389.503 116.037 389.503H318.206C329.437 389.503 338.542 398.608 338.542 409.839C338.542 421.071 329.437 430.176 318.206 430.176H116.037C104.806 430.176 95.7009 421.071 95.7009 409.839Z" fill="#EE857F"/>
</svg>
